<svg width="130" height="34" viewBox="0 0 130 34" fill="none" xmlns="http://www.w3.org/2000/svg">
  <rect width="130" height="34" rx="4" fill="#F4EFE6"/>
  <path fill="#000000" d="M46.0676 11.8347v12.5272h2.9415V11.8347h4.6077V9.44861H41.4805v2.38609h4.5871Zm7.3506 16.1269h1.1931c2.7564 0 3.3323-.4936 4.6282-3.9288l4.0523-10.7375H60.412l-2.5712 7.9811-2.5096-7.9811h-3.1061l4.2374 11.0254-.1234.3086c-.4731 1.1725-.905 1.152-1.8512 1.152h-1.0697v2.1803Zm11.1507 0h2.8386v-4.9984c.6995 1.2136 2.0159 1.6661 3.1678 1.6661 2.633 0 4.834-2.2626 4.834-5.8008 0-3.4763-2.1393-5.7802-4.8133-5.7802-1.3988 0-2.5918.6378-3.1885 1.6663v-1.4193h-2.8386v14.6663Zm7.8578-9.1125c0 2.1599-1.0696 3.5998-2.5302 3.5998-1.5632 0-2.5918-1.3576-2.5918-3.6204 0-2.2216 1.0286-3.5997 2.5918-3.5997 1.4606 0 2.5302 1.4605 2.5302 3.6203Zm7.0766.7612h8.1664c.1234-3.9084-2.0159-6.562-5.4307-6.562-3.2706 0-5.5538 2.4479-5.5538 5.7391 0 3.1883 2.0775 5.8419 5.6362 5.8419 3.0031 0 4.6282-1.8307 5.2247-3.4763h-2.9209c-.576.9667-1.4604 1.2754-2.3243 1.2754-1.3372 0-2.6536-.9258-2.7976-2.8181Zm.0412-1.9542c.2262-1.8514 1.6044-2.5302 2.6741-2.5302 1.193 0 2.5094.6583 2.5711 2.5302h-5.2452Zm10.5223-4.978v.6172h-1.5633v1.9541h1.5633v9.1125h2.8387v-9.1125h2.2215v-1.9541h-2.2215v-.5349c0-1.0491.2674-1.2136 1.6662-1.2136h.5553V9.44861h-.9667c-2.777 0-4.0935.43197-4.0935 3.22949Zm9.4176 11.9512c1.6666 0 2.8386-.4937 3.6206-1.6456.041.5348.103 1.0285.185 1.3782h2.612c-.206-.9256-.329-1.913-.329-3.6615 0-1.0079.041-2.4684.041-2.8181 0-3.7437-2.139-4.8751-4.772-4.8751-2.8387 0-4.6488 1.6045-4.8545 3.785h2.6534c.0617-1.2137.9669-1.7897 2.0571-1.7897 1.152 0 2.078.5965 2.078 2.3039v.1851c-4.3408.4937-7.2823 1.2753-7.2823 3.8877 0 2.0159 1.8719 3.2501 3.9907 3.2501Zm3.3736-5.3277v.8229c0 1.6044-.761 2.5713-2.53 2.5713-1.2756 0-1.9132-.6582-1.9132-1.4606 0-1.2341 1.2753-1.6044 4.4432-1.9336Zm14.974-2.2215c-.37-2.7564-2.715-4.0318-5.019-4.0318-3.312 0-5.554 2.4273-5.554 5.8008 0 3.3323 2.119 5.7802 5.431 5.7802 2.283 0 4.587-1.0079 5.245-4.0317h-2.715c-.371 1.337-1.42 1.8308-2.387 1.8308-1.563 0-2.674-1.296-2.674-3.6204 0-2.3038 1.173-3.5586 2.654-3.5586 1.07 0 2.098.7816 2.304 1.8307h2.715Zm3.997 2.5302h8.166c.123-3.9084-2.016-6.562-5.431-6.562-3.27 0-5.553 2.4479-5.553 5.7391 0 3.1883 2.077 5.8419 5.636 5.8419 3.003 0 4.628-1.8307 5.225-3.4763h-2.921c-.577.9667-1.461 1.2754-2.325 1.2754-1.337 0-2.653-.9258-2.797-2.8181Zm.041-1.9542c.226-1.8514 1.604-2.5302 2.674-2.5302 1.192 0 2.509.6583 2.571 2.5302h-5.245Z"/>
  <path fill="#FD243E" d="M0 0h33.3181v33.3181H0V0Z"/>
  <path fill="#FFFFFF" d="M11.8237 8.05957H8.59937V24.1812h3.22433V8.05957Z"/>
</svg>
