<svg width="103" height="13" viewBox="0 0 103 13" fill="none" xmlns="http://www.w3.org/2000/svg">
<path d="M62.7714 10.1727H68.6428L69.7856 12.3079H62.6335C61.8454 12.3079 61.1952 12.0058 60.7421 11.4015C60.4465 11.0187 60.3086 10.5957 60.3086 10.1324V0H62.7911V10.1727H62.7714Z" fill="#0D81FD"/>
<path d="M77.8396 10.6734H72.5148L73.8216 8.57045H77.0984L75.0114 2.61875L71.6175 12.2803H68.9844L72.5538 2.12277C73.0999 0.714204 73.9191 0.019839 75.0114 0C76.1232 0.019839 76.9424 0.734043 77.4495 2.14261L81.0384 12.3002H78.4053L77.8396 10.6734Z" fill="#0D81FD"/>
<path d="M90.2352 6.05662C91.285 6.59168 91.899 7.36455 92.097 8.35542C92.1366 8.53377 92.1564 8.71213 92.1564 8.89048C92.1564 9.88134 91.7207 10.7137 90.8294 11.3478C89.9579 11.982 88.829 12.299 87.4425 12.299H81.7383V2.31116C81.7383 1.57792 82.0552 1.02304 82.689 0.58706C83.1247 0.309619 83.5803 0.170898 84.0754 0.170898H87.4425C88.9676 0.170898 90.0966 0.666329 90.8294 1.63737C91.2651 2.19226 91.483 2.82641 91.483 3.53983C91.483 4.51087 91.1067 5.32338 90.3541 5.95753C90.2946 6.01698 90.255 6.0368 90.2352 6.05662ZM85.7194 5.12521H87.4425C88.1754 5.12521 88.6705 4.84777 88.9082 4.29288C88.9874 4.09471 89.027 3.89654 89.027 3.69837C89.027 3.14348 88.7695 2.72732 88.2744 2.4697C88.0169 2.35079 87.7396 2.27153 87.4227 2.27153H84.2141V10.1786H87.4227C88.4526 10.1786 89.1459 9.90116 89.5024 9.32646C89.6212 9.12829 89.6806 8.9103 89.6806 8.71213C89.6806 8.19688 89.3835 7.80053 88.8092 7.52309C88.413 7.32492 87.9575 7.24565 87.4227 7.24565H84.3527L85.7194 5.12521Z" fill="#0D81FD"/>
<path d="M92.7141 3.65029C92.7141 2.67606 93.1898 1.841 94.1015 1.14513C94.9933 0.489014 96.0834 0.170898 97.3122 0.170898H98.977C99.9878 0.170898 100.959 0.389603 101.91 0.846894C102.307 1.04572 102.624 1.26442 102.862 1.48312L100.681 3.13335C100.325 2.63629 99.8293 2.35794 99.2149 2.27841C99.1356 2.25853 99.0563 2.25853 98.977 2.25853H97.3122C96.4996 2.25853 95.8852 2.47723 95.469 2.93453C95.2906 3.15323 95.1915 3.39182 95.1915 3.61052C95.1915 4.02805 95.6474 4.38593 96.5392 4.68416C96.8167 4.78357 97.2924 4.90286 97.9861 5.0818C99.6112 5.49933 100.761 5.89697 101.395 6.29462C102.465 6.93085 103 7.78578 103 8.81966C103 9.79389 102.525 10.6289 101.554 11.3049C100.602 11.961 99.4923 12.299 98.2041 12.299H96.5392C95.4888 12.299 94.4582 12.0803 93.4672 11.6231C93.051 11.4242 92.7339 11.2055 92.4961 10.9868L94.6366 9.35648C95.0132 9.83365 95.5483 10.112 96.2221 10.1915C96.3212 10.2114 96.4401 10.2114 96.5194 10.2114H98.1843C99.0563 10.2114 99.7302 9.99271 100.166 9.53542C100.364 9.31671 100.463 9.09801 100.463 8.85942C100.463 8.38225 100.008 8.00449 99.1158 7.68637C98.9968 7.62673 98.2041 7.40802 96.7573 7.03026C95.0924 6.59285 93.9627 6.07591 93.3682 5.43968C92.9519 4.96251 92.7141 4.34616 92.7141 3.65029Z" fill="#0D81FD"/>
<path d="M23.0178 5.30968V7.0326C23.0178 8.19558 22.6707 9.2121 21.9765 10.0908L19.7291 8.51432L17.551 6.98092L17.4556 6.912C17.4469 6.90338 17.4382 6.90338 17.4295 6.89477C17.3601 6.86893 17.2907 6.8517 17.2126 6.8517C17.2039 6.8517 17.1953 6.8517 17.1866 6.8517C17.1779 6.8517 17.1692 6.8517 17.1605 6.8517C17.1519 6.8517 17.1432 6.8517 17.1432 6.8517H17.1345C17.1258 6.8517 17.1172 6.8517 17.0998 6.86031C17.0304 6.87754 16.961 6.912 16.9002 6.95507C16.8915 6.96369 16.8829 6.96369 16.8742 6.9723C16.7353 7.06706 16.5705 7.12736 16.3969 7.12736C15.937 7.12736 15.5639 6.75694 15.5639 6.29175C15.5639 5.82656 15.937 5.45613 16.3969 5.45613C16.6052 5.45613 16.7961 5.53366 16.9436 5.66288C17.0824 5.78348 17.1779 5.93855 17.2126 6.12807C17.2907 6.17114 17.3775 6.19698 17.4643 6.19698C17.7159 6.19698 17.9242 6.01608 17.9762 5.78348C17.9068 5.5595 17.7853 5.35275 17.6291 5.18046C17.3254 4.84449 16.8915 4.63774 16.4056 4.63774C15.4945 4.63774 14.7482 5.3786 14.7482 6.29175C14.7482 7.2049 15.4858 7.94575 16.4056 7.94575C16.6139 7.94575 16.8221 7.90268 17.0043 7.83376C17.013 7.83376 17.0217 7.82515 17.0304 7.82515C17.0651 7.80792 17.0998 7.7993 17.1345 7.78208C17.2907 7.72177 17.4556 7.68731 17.6291 7.68731C17.8634 7.68731 18.089 7.74762 18.2799 7.85961C18.2886 7.85961 18.2973 7.86822 18.2973 7.86822L18.3407 7.89407L19.6249 8.66938L21.9765 10.0994C21.8811 10.22 21.7769 10.3406 21.6641 10.4612L19.3126 9.04843L18.7746 8.72968L18.6965 8.678C18.4795 8.51432 18.2018 8.41094 17.8981 8.41956C17.7159 8.41956 17.5424 8.45402 17.3862 8.52293C17.3688 8.53155 17.3428 8.54016 17.3254 8.54878C17.0391 8.66938 16.7267 8.72968 16.3969 8.72968C16.3709 8.72968 16.3449 8.72968 16.3188 8.72968C15.0085 8.68661 13.9586 7.60978 13.9586 6.28313C13.9586 4.93064 15.0519 3.83658 16.3969 3.83658C17.3862 3.83658 18.2365 4.42237 18.6184 5.25799C18.6965 5.42167 18.7572 5.60258 18.7919 5.78348C18.9481 5.98162 19.1824 6.11084 19.4514 6.11084C19.5642 6.11084 19.677 6.08499 19.7811 6.04192C20.0588 5.92132 20.2584 5.65426 20.2844 5.33552C20.2324 5.12877 20.1629 4.92202 20.0848 4.72388C19.4774 3.27663 18.0456 2.26872 16.3883 2.26872C14.1755 2.26872 12.3793 4.06917 12.3793 6.28313C12.3793 8.49709 14.1755 10.2975 16.3883 10.2975C16.4924 10.2975 16.5965 10.2889 16.7006 10.2889C16.8395 10.2803 16.9783 10.2631 17.1172 10.2372C17.2386 10.22 17.3601 10.1856 17.4816 10.1511C17.551 10.1253 17.6204 10.108 17.6985 10.0822C17.9675 10.0046 18.2626 9.96157 18.5576 9.96157C18.575 9.96157 18.5923 9.96157 18.6097 9.96157C18.8179 9.96157 19.0175 9.9788 19.2171 10.0133C19.4167 10.0477 19.6163 10.0994 19.8072 10.1769H19.8158L21.3691 10.7455C20.4493 11.5725 19.3733 11.986 18.1151 11.986H14.6701C13.2817 11.986 12.1103 11.4864 11.1471 10.5043C10.2186 9.53084 9.75 8.37648 9.75 7.0326V5.30968C9.75 3.91411 10.2533 2.72529 11.2425 1.75184C12.197 0.812846 13.3425 0.347656 14.6701 0.347656H18.1064C19.4861 0.347656 20.6662 0.847304 21.6294 1.82937C22.5492 2.81144 23.0178 3.97441 23.0178 5.30968Z" fill="white"/>
<path d="M23.3828 12.301L24.3179 2.12099C24.4174 1.20098 24.8551 0.560979 25.631 0.200977C25.9494 0.0609768 26.2876 0.000976562 26.6258 0.000976562C27.3819 0.000976562 27.9588 0.280978 28.3369 0.86098C28.4363 1.00098 28.5159 1.14098 28.5756 1.32098L30.9034 8.02101L33.2312 1.30098C33.4899 0.640979 33.9674 0.220978 34.6836 0.0609768C34.8627 0.0209766 35.0219 0.000976562 35.181 0.000976562C35.957 0.000976562 36.5737 0.300978 37.0313 0.900981C37.29 1.26098 37.4491 1.66098 37.4889 2.12099L38.623 12.301H35.9371L34.9821 2.60099L32.2364 10.521H29.5903L26.8049 2.60099L25.8499 12.301" fill="white"/>
<path d="M42.1866 7.31765V10.1777H48.593L49.7669 12.2977H42.0473C41.2515 12.2977 40.6148 11.9977 40.1373 11.4177C39.8389 11.0177 39.6797 10.5977 39.6797 10.1577V2.21763C39.6797 1.49762 39.998 0.917621 40.6347 0.497619C41.0724 0.217618 41.53 0.0576172 42.0473 0.0576172H49.7669L48.593 2.17763H42.1866V5.17764H48.0757V7.31765H42.1866Z" fill="white"/>
<path d="M54.0618 0.0776173L52.7288 2.19763H50.2617V0.0776173H54.0618ZM56.1111 12.2977H53.5843V2.21763C53.5843 1.49762 53.9027 0.917621 54.5393 0.497619C54.977 0.217618 55.4346 0.0576172 55.9519 0.0576172H59.6923V2.17763H56.1111V12.2977Z" fill="white"/>
<path d="M2.51151 4.68676V7.63557C2.51151 8.48386 2.81289 9.15037 3.43574 9.65531C3.85767 9.99866 4.33988 10.1804 4.82209 10.1804H6.48973C7.17286 10.1804 7.75553 9.95827 8.21765 9.49373C8.27792 9.43314 8.3382 9.37254 8.37838 9.31195L10.5684 10.9681C9.94556 11.5539 9.00124 11.9376 7.71534 12.18C7.27332 12.2608 6.85139 12.3012 6.46964 12.3012H4.82209C3.47592 12.3012 2.31058 11.8366 1.34617 10.8873C0.462117 9.97846 0 8.88781 0 7.63557V4.68676C0 3.37393 0.482209 2.26308 1.44663 1.334C2.41105 0.445318 3.5362 0.000976562 4.84218 0.000976562H6.50982C7.5747 0.000976562 8.59939 0.223147 9.604 0.707884C10.0259 0.909857 10.3474 1.13203 10.5885 1.3542L8.39847 3.03058C8.01673 2.54584 7.47424 2.26308 6.79111 2.18229C6.69065 2.18229 6.59019 2.16209 6.48973 2.16209H4.82209C4.05859 2.16209 3.45583 2.48525 2.99371 3.15176C2.67224 3.5961 2.51151 4.12123 2.51151 4.68676Z" fill="white"/>
</svg>
